<svg xmlns="http://www.w3.org/2000/svg" xmlns:xlink="http://www.w3.org/1999/xlink" width="156" height="156" viewBox="0 0 156 156"><defs><linearGradient id="a" x1="0.188" x2="0.809" y2="0.972" gradientUnits="objectBoundingBox"><stop offset="0" stop-color="#3256bb"/><stop offset="1" stop-color="#22b3d2"/></linearGradient></defs><g transform="translate(1642 -530)"><g transform="translate(-894 -1264)"><circle cx="78" cy="78" r="78" transform="translate(-748 1794)" fill="url(#a)"/></g><g transform="translate(-1608.704 563.338)"><g transform="translate(17.881 33.368)"><path d="M39.447,57.195v5.471L20,54.236V49.558L39.447,41.13v5.509L25.9,51.86Z" transform="translate(-20 -37.09)" fill="#fff"/><path d="M54.052,40.535,48.639,62.824q-.27,1.1-.473,1.74a2.106,2.106,0,0,1-.618.994,1.8,1.8,0,0,1-1.209.358q-1.971,0-1.972-1.7a15.225,15.225,0,0,1,.387-2.223L50.148,39.7a9.97,9.97,0,0,1,.811-2.435,1.6,1.6,0,0,1,1.509-.657,2.127,2.127,0,0,1,1.478.464,1.635,1.635,0,0,1,.512,1.276A10.722,10.722,0,0,1,54.052,40.535Z" transform="translate(-22.581 -36.611)" fill="#fff"/><path d="M77.7,54.245,58.249,62.713V57.242l13.59-5.335-13.59-5.259V41.216L77.7,49.606Z" transform="translate(-24.052 -37.099)" fill="#fff"/></g><path d="M84.043,6H5.364A5.365,5.365,0,0,0,0,11.364v67.95a5.365,5.365,0,0,0,5.364,5.364H84.043a5.365,5.365,0,0,0,5.364-5.364V11.364A5.364,5.364,0,0,0,84.043,6ZM70.632,9.576a3.576,3.576,0,1,1-3.576,3.576A3.58,3.58,0,0,1,70.632,9.576Zm-9.835,0a3.576,3.576,0,1,1-3.576,3.576A3.58,3.58,0,0,1,60.8,9.576ZM84.043,79.314H5.364V20.305H84.043ZM80.467,16.729a3.576,3.576,0,1,1,3.576-3.576A3.58,3.58,0,0,1,80.467,16.729Z" transform="translate(0 0)" fill="#fff"/><text transform="translate(20.704 87.662)" fill="none" font-size="2" font-family="Arial-BoldMT, Arial" font-weight="700"><tspan x="0" y="0">Created by Icon Solid</tspan></text><text transform="translate(20.704 94.662)" fill="none" font-size="2" font-family="Arial-BoldMT, Arial" font-weight="700"><tspan x="0" y="0">from the Noun Project</tspan></text></g></g></svg>