<svg xmlns="http://www.w3.org/2000/svg" width="1447.495" height="845.374" viewBox="0 0 1447.495 845.374"><g transform="translate(0.022 0.016)"><path d="M1319,845.07c-14.64.44-29.3.13-44,.13q-566.78,0-1133.56.07c-14.62,0-27.75-3.95-38.15-14a47,47,0,0,1-14.88-33.5c-.07-2.66-.08-5.33-.08-8,0-106.913.02-119.823.06-226.73,0-11.22-3.33-21-11.24-29S58.94,522.93,47.8,522.58c-6-.19-12,.06-18-.06-13.27-.27-22.28-7.25-27.24-19-4.74-11.22-2.94-22.2,5.28-31.27,6-6.63,14.2-9.51,23.23-9.52,19.81,0,39.63.06,59.45,0,14.21-.06,26.31-10.83,27.69-24.44,1.47-14.35-8.19-27.72-22.55-30.11-6.17-1-12.62-.44-18.94-.52-7.32-.09-14.65-.07-22-.16-11-.13-17.85-7-22.65-15.62-11.72-21.13,3.86-43.4,26.08-44,15.37-.44,26.49-9.08,29.53-23.3a38.9,38.9,0,0,0,.54-7.94c0-30.31.5-60.63-.15-90.92-.61-28.4,22.28-50.9,50-49.79,8,.32,16,.12,24,0,15.64-.16,28.82-12.09,30-27.11,1.29-15.94-9.57-30.27-25.35-32.49-6.54-.92-13.29-.34-19.95-.39-5.66-.05-11.34.25-17-.08-23.4-1.33-40.43-17.18-41.44-41.33-.46-10.93-1.12-22,.66-32.89A49.41,49.41,0,0,1,137.93.08C192.22-.07,246.51,0,300.8,0H1316.46c26.83,0,47.41,20.32,50,42.52a33.044,33.044,0,0,0,.92,3.91c1.69,1.08,3.57.57,5.33.58q22.74.06,45.47,0c11.52,0,20.27,4.78,25.8,14.88s4.22,20.36-2,29c-4.56,6.38-11.66,11-20.44,11-44.8,0-89.59-.07-134.39.07-15,0-27,12.77-26.87,27.81a27.57,27.57,0,0,0,27.07,27.15c24.48.14,49-.11,73.43.1,17.71.15,31,8.53,39.21,23.92,8.29,15.56,7,31.27-2.94,45.81a41.94,41.94,0,0,1-29.22,18.38c-1.09,2.4-.62,4.59-.62,6.71V718.93c0,15.61-8.62,24.26-24.37,24.43-14.6.17-26.07,9.73-27.51,22.94-1.67,15.34,7.76,28.88,22.41,31.87,2.57.53,5.31.17,8,.25,15.63.42,31.35-1.34,46.89.81,12.493,1.8,20.067,8.991,22.2,19.554s-2.462,16.683-13.675,22.7S1334.9,844.58,1319,845.07Z" fill="#fefefe"/></g></svg>