<svg xmlns="http://www.w3.org/2000/svg" xmlns:xlink="http://www.w3.org/1999/xlink" width="156" height="156" viewBox="0 0 156 156"><defs><linearGradient id="a" x1="0.188" x2="0.809" y2="0.972" gradientUnits="objectBoundingBox"><stop offset="0" stop-color="#3256bb"/><stop offset="1" stop-color="#22b3d2"/></linearGradient></defs><g transform="translate(748 -1794)"><circle cx="78" cy="78" r="78" transform="translate(-748 1794)" fill="url(#a)"/><g transform="translate(-782.742 1865.92)"><g transform="translate(56.328 -43.932)"><path d="M97.877,80.679s0,.053-.053,0a7.451,7.451,0,0,1-5.318,2.211h-.842l-.474-.105a7.935,7.935,0,0,1-6.213-5.318l-.369-1.106c-1.316-.369-2.633-.684-4-.948a57.566,57.566,0,0,0,1.738-5.792l-.558-1.685h.032l-2.369-7.108a1.338,1.338,0,0,1-.632.105,2.28,2.28,0,0,1-1-.211A2.806,2.806,0,0,1,76.395,59.3a2.48,2.48,0,0,1,0-2,2.806,2.806,0,0,1,1.422-1.422L75.6,49.3a8.061,8.061,0,0,1,1.9-8.109c.142-.142.316-.253.469-.384h0a7.9,7.9,0,0,1,2.264-1.4l.105-.032a7.609,7.609,0,0,1,2.327-.479c.137,0,.274-.042.411-.042a8.2,8.2,0,0,1,2.527.421l28.012,9.32V43.384a5.265,5.265,0,0,0-5.265-5.265h-2.906a49.415,49.415,0,0,0-8.6-16.2l-.047-.058a49.842,49.842,0,0,0-78.09,0v.032a49.263,49.263,0,0,0-8.64,16.244H7.155A5.265,5.265,0,0,0,1.89,43.4V62.671a5.265,5.265,0,0,0,5.265,5.265h2.906A49,49,0,0,0,18.581,84a49.826,49.826,0,0,0,77.137,1.527h.053a38.86,38.86,0,0,0,3.054-4.054l.316-.474a5.266,5.266,0,0,1-.79-.737,3.407,3.407,0,0,1-.474.421ZM77.3,67.937a51.853,51.853,0,0,1-2.064,6.529,105.877,105.877,0,0,0-14.848-1.316V67.937ZM59.6,60.144a2.517,2.517,0,0,1-2.843.579A2.633,2.633,0,0,1,55.123,58.3V47.77a2.633,2.633,0,0,1,5.265,0v4.16l.79-.737a2.543,2.543,0,0,1,3.686,0l.79.737V47.77a2.633,2.633,0,1,1,5.265,0V58.3a2.633,2.633,0,0,1-1.632,2.422,2.28,2.28,0,0,1-1,.211,2.469,2.469,0,0,1-1.843-.79l-3.422-3.37Zm.79-49.368a50.516,50.516,0,0,1,12.589,15.7,109.585,109.585,0,0,1-12.589,1.016Zm-5.265,0V27.494a110.575,110.575,0,0,1-12.584-1.011A50.5,50.5,0,0,1,55.123,10.771Zm0,22.114v5.265H38.174a54.586,54.586,0,0,1,2.075-6.566,114.073,114.073,0,0,0,14.875,1.285ZM35.694,60.723A2.633,2.633,0,0,1,34.061,58.3V47.77a2.633,2.633,0,0,1,5.265,0v4.16l.79-.737a2.543,2.543,0,0,1,3.686,0l.79.737V47.77a2.633,2.633,0,0,1,5.265,0V58.3a2.633,2.633,0,0,1-1.632,2.422,2.28,2.28,0,0,1-1,.211,2.469,2.469,0,0,1-1.843-.79l-3.422-3.37-3.422,3.37A2.5,2.5,0,0,1,35.694,60.723Zm19.429,7.214v5.213a106.629,106.629,0,0,0-14.9,1.316,54.941,54.941,0,0,1-2.048-6.529Zm0,10.478V95.322A50.237,50.237,0,0,1,42.486,79.463a100.413,100.413,0,0,1,12.637-1.048ZM60.388,95.3V78.415a90.907,90.907,0,0,1,12.637,1.053A50.021,50.021,0,0,1,60.388,95.3Zm0-57.166V32.869a114.071,114.071,0,0,0,14.875-1.306,54.292,54.292,0,0,1,2.075,6.566Zm22.3,0A60.728,60.728,0,0,0,80.512,30.6a97.409,97.409,0,0,0,13.442-3.786,44.129,44.129,0,0,1,5.924,11.321ZM90.343,22.46a91.246,91.246,0,0,1-11.915,3.159,55.049,55.049,0,0,0-11.815-16.4A45.087,45.087,0,0,1,90.343,22.46ZM48.894,9.212a55.539,55.539,0,0,0-11.831,16.4,90.929,90.929,0,0,1-11.894-3.159A45.056,45.056,0,0,1,48.894,9.212Zm-27.338,17.6a96.435,96.435,0,0,0,13.39,3.77,60.973,60.973,0,0,0-2.185,7.55H15.633a44.129,44.129,0,0,1,5.924-11.321ZM14.632,60.723A2.633,2.633,0,0,1,13,58.3V47.77a2.633,2.633,0,0,1,5.265,0v4.16l.79-.737a2.543,2.543,0,0,1,3.686,0l.79.737V47.77a2.633,2.633,0,0,1,5.265,0V58.3a2.633,2.633,0,0,1-1.632,2.422,2.28,2.28,0,0,1-1,.211,2.47,2.47,0,0,1-1.843-.79L20.9,56.774l-3.422,3.37a2.5,2.5,0,0,1-2.843.579Zm18.129,7.214a62.2,62.2,0,0,0,2.154,7.477h0A91.046,91.046,0,0,0,21.54,79.2a43.7,43.7,0,0,1-5.792-11.268Zm-7.7,15.585A86.482,86.482,0,0,1,37.01,80.363h0A55.423,55.423,0,0,0,48.878,96.849h0a44.856,44.856,0,0,1-23.82-13.327ZM66.6,96.9A54.665,54.665,0,0,0,78.5,80.363a81.459,81.459,0,0,1,11.952,3.212A43.945,43.945,0,0,1,66.6,96.9Zm47.335-29.17a2.485,2.485,0,0,1-.79,2.053l-7.056,7.056a2.485,2.485,0,0,1-2.053.79,2.659,2.659,0,0,1-1.948-1.106l-.105-.158L99.72,73.2l-1.369-1.9-1.316,1.9-2.369,3.317a2.743,2.743,0,0,1-2.159,1.106,1.158,1.158,0,0,1-.421-.053,2.559,2.559,0,0,1-2.106-1.738l-.9-2.633-1.738-5.265-6.74-20.324A2.633,2.633,0,0,1,83.924,44.3l28.222,9.372a2.68,2.68,0,0,1,1.474,1.264,2.254,2.254,0,0,1,.263.842,2.464,2.464,0,0,1-.263,1.632,2.175,2.175,0,0,1-.79.9l-5.213,3.738,5.213,3.738a3.012,3.012,0,0,1,.79.842A3.828,3.828,0,0,1,113.937,67.726Z" transform="translate(-1.89 -2.996)" fill="#fff"/></g></g></g></svg>