<svg xmlns="http://www.w3.org/2000/svg" xmlns:xlink="http://www.w3.org/1999/xlink" width="49.028" height="38" viewBox="0 0 49.028 38">
  <defs>
    <filter id="Path_4" x="0" y="0" width="49.028" height="38" filterUnits="userSpaceOnUse">
      <feOffset input="SourceAlpha"/>
      <feGaussianBlur stdDeviation="3" result="blur"/>
      <feFlood flood-opacity="0.271"/>
      <feComposite operator="in" in2="blur"/>
      <feComposite in="SourceGraphic"/>
    </filter>
  </defs>
  <g transform="translate(-77.575 -166.93)">
    <g transform="matrix(1, 0, 0, 1, 77.58, 166.93)" filter="url(#Path_4)">
      <path data-name="Path 4" d="M6,0H25a6.08,6.08,0,0,1,5.938,5.132c.023.076.047,2.761.062,4.978S31,14,31,14a6,6,0,0,1-6,6H6a6,6,0,0,1-6-6V10.109c0-2.09-.047-3.994,0-4.469A6.375,6.375,0,0,1,6,0Z" transform="translate(9.02 9)" fill="rgba(255,255,255,0.7)"/>
    </g>
    <path data-name="Path 2" d="M0,0,2.586,2.673,0,5.364" transform="translate(107.385 181.137) rotate(-45)" fill="none" stroke="#707070" stroke-linecap="round" stroke-linejoin="round" stroke-width="1"/>
    <path data-name="Path 3" d="M0,0,2.586,2.673,0,5.364" transform="translate(96.737 191.101) rotate(135)" fill="none" stroke="#707070" stroke-linecap="round" stroke-linejoin="round" stroke-width="1"/>
  </g>
</svg>
