<svg xmlns="http://www.w3.org/2000/svg" xmlns:xlink="http://www.w3.org/1999/xlink" width="156" height="156" viewBox="0 0 156 156"><defs><linearGradient id="a" x1="0.188" x2="0.809" y2="0.972" gradientUnits="objectBoundingBox"><stop offset="0" stop-color="#3256bb"/><stop offset="1" stop-color="#22b3d2"/></linearGradient></defs><g transform="translate(1642 -882)"><g transform="translate(-894 -912)"><circle cx="78" cy="78" r="78" transform="translate(-748 1794)" fill="url(#a)"/></g><g transform="translate(-1618.255 902.745)"><g transform="translate(23.6 2.5)"><path d="M33.2,112.394h41.76a9.578,9.578,0,0,0,9.6-9.6V12.1a9.578,9.578,0,0,0-9.6-9.6H33.2a9.578,9.578,0,0,0-9.6,9.6v90.691A9.578,9.578,0,0,0,33.2,112.394Zm27.069-5.321a2.32,2.32,0,0,1-2.314,2.314H50.322a2.32,2.32,0,0,1-2.314-2.314v-1.5a2.32,2.32,0,0,1,2.314-2.314h7.635a2.32,2.32,0,0,1,2.314,2.314ZM48.008,5.508H60.27V8.515H48.008Zm-21.4,9.254H81.554v85.486H26.608Z" transform="translate(-23.6 -2.5)" fill="#fff"/><path d="M38.344,75.4H31.4a1.531,1.531,0,0,0-1.5,1.5v6.941a1.531,1.531,0,0,0,1.5,1.5h6.941a1.531,1.531,0,0,0,1.5-1.5V76.9A1.616,1.616,0,0,0,38.344,75.4Z" transform="translate(-22.612 8.929)" fill="#fff"/><path d="M59.444,75.4H52.5A1.531,1.531,0,0,0,51,76.9v6.941a1.531,1.531,0,0,0,1.5,1.5h6.941a1.531,1.531,0,0,0,1.5-1.5V76.9A1.531,1.531,0,0,0,59.444,75.4Z" transform="translate(-19.304 8.929)" fill="#fff"/><path d="M70.044,75.4H63.1a1.531,1.531,0,0,0-1.5,1.5v6.941a1.531,1.531,0,0,0,1.5,1.5h6.941a1.531,1.531,0,0,0,1.5-1.5V76.9A1.716,1.716,0,0,0,70.044,75.4Z" transform="translate(-17.642 8.929)" fill="#fff"/><path d="M48.96,75.4H41.9a1.531,1.531,0,0,0-1.5,1.5V83.96a1.531,1.531,0,0,0,1.5,1.5H48.96a1.531,1.531,0,0,0,1.5-1.5V76.9A1.531,1.531,0,0,0,48.96,75.4Z" transform="translate(-20.966 8.929)" fill="#fff"/></g><text transform="translate(23.6 120.286)" fill="none" font-size="5" font-family="Arial-BoldMT, Arial" font-weight="700"><tspan x="0" y="0">Created by Guilhem</tspan></text><text transform="translate(23.6 126.07)" fill="none" font-size="5" font-family="Arial-BoldMT, Arial" font-weight="700"><tspan x="0" y="0">from the Noun Project</tspan></text></g></g></svg>