<svg xmlns="http://www.w3.org/2000/svg" xmlns:xlink="http://www.w3.org/1999/xlink" width="156" height="156" viewBox="0 0 156 156"><defs><linearGradient id="a" x1="0.188" x2="0.809" y2="0.972" gradientUnits="objectBoundingBox"><stop offset="0" stop-color="#3256bb"/><stop offset="1" stop-color="#22b3d2"/></linearGradient></defs><g transform="translate(1642 -706)"><g transform="translate(-894 -1088)"><circle cx="78" cy="78" r="78" transform="translate(-748 1794)" fill="url(#a)"/></g><g transform="translate(-1612.357 738.691)"><path d="M79.64,30.88V20.26L67.36,32.55,46.03,53.87,31.22,39.06,19.53,50.75l-4.42-4.42a25.369,25.369,0,0,0,.65,4.89A24.777,24.777,0,0,0,64.05,40.1l5.431-5.43A31.493,31.493,0,0,1,66.64,62.191l16.9,16.84a7.2,7.2,0,0,1,0,10.21l-.7.7a7.2,7.2,0,0,1-10.21,0L55.51,72.91A31.52,31.52,0,0,1,8.34,45.529c0-.57.02-1.13.04-1.69.04-.78.11-1.55.22-2.32.1-.85.25-1.69.42-2.52a31.526,31.526,0,0,1,53.32-15.58L57.56,28.2a24.755,24.755,0,0,0-39.95,6.48,22.61,22.61,0,0,0-1.23,3.01l3.15,3.16,11.69-11.69,14.81,14.81,13.65-13.65,4.78-4.78,10.23-10.23H64.53v-7H86.64v22.57h-7Z" fill="#fff"/><text transform="translate(19.99 104)" fill="none" font-size="5" font-family="Arial-BoldMT, Arial" font-weight="700"><tspan x="0" y="0">Created by Dan Hetteix</tspan></text><text transform="translate(19.99 109)" fill="none" font-size="5" font-family="Arial-BoldMT, Arial" font-weight="700"><tspan x="0" y="0">from the Noun Project</tspan></text></g></g></svg>