<svg xmlns="http://www.w3.org/2000/svg" width="597.003" height="712.187" viewBox="0 0 597.003 712.187"><defs><style>.a{fill:#010101;}</style></defs><g transform="translate(0.003)"><path class="a" d="M578.13,168.49a135.84,135.84,0,0,1,14.7,18.66c25,37,39.1,77.3,36.16,122.52-2.11,32.51-13.43,61.81-31.75,88.58-19.83,29-44.58,53.37-70.87,76.33C490.09,506.27,450.91,534.3,413.08,564c-19.91,15.66-39.67,31.51-56.38,50.74a124.5,124.5,0,0,0-28.5,58.49c-.29,1.43-.34,2.91-.53,4.6,14.51,1.75,28.78.78,43-.9,35.61-4.21,68.86-15.15,97.85-36.73,38.9-29,65.35-66.37,75-114.58,1.64-8.18,3.81-14.45,3.43-22.81-.16-3.53,1-5.73,3.68-8,20.45-16.9,40.11-34.64,56-56.13,3.82-5.18,7.39-10.53,11.47-16.35,4.71,11.39,6.81,20.68,8.9,32.24,14.08,78-7.45,146.15-57.43,206.2-40.76,49-93.76,77-155.72,89.09a296.437,296.437,0,0,1-73.54,5.47,26.68,26.68,0,0,1-12.21-3.78c-39.43-23.15-64.09-56.92-69.9-102.51-7.12-55.84,8.77-105.55,43.63-149.52,25.72-32.45,56.1-60.15,88-86.26,30.28-24.8,61.26-48.73,91.42-73.67,39.89-33,70-73.23,87.12-122.5A175.149,175.149,0,0,0,578.13,168.49Z" transform="translate(-108 -43.52)"/><path class="a" d="M497.42,43.52c3,.18,3.55,2.38,4.53,4,12.51,20.41,20.13,42.67,23.78,66.19,9.6,61.72-8.49,115.37-48.4,162.39-25.57,30.13-55.68,55.44-86,80.47-31.36,25.85-63.67,50.56-93.26,78.52a388,388,0,0,0-28.52,30.09c-20.15,23.56-29.81,51.93-37.67,81.14a252.11,252.11,0,0,0-8.16,50.34,198.739,198.739,0,0,1-20.12-25.55c-16.05-23.83-28-49.39-32.88-78-5.87-34.46.66-66.46,18.85-96.21,13.13-21.47,29.62-40.18,47.28-57.93,30-30.17,62.84-57.17,95-84.94,35.72-30.85,70.91-62.2,100.16-99.56C457.39,122,480.17,88,495.32,49.33,496,47.48,496.67,45.6,497.42,43.52Z" transform="translate(-108 -43.52)"/><path class="a" d="M228,644.24A38.06,38.06,0,0,1,189.64,682c-20.87-.08-37.76-17.35-37.64-38.49.12-20.64,17.3-37.55,38.11-37.5A38,38,0,0,1,228,644.24Z" transform="translate(-108 -43.52)"/><path class="a" d="M674.32,320.07a30.39,30.39,0,1,1,21.631-8.752,30.5,30.5,0,0,1-21.631,8.752Z" transform="translate(-108 -43.52)"/><path class="a" d="M146,598a30,30,0,1,1,21.3-8.875A30,30,0,0,1,146,598Z" transform="translate(-108 -43.52)"/><path class="a" d="M133.74,461A25.49,25.49,0,1,1,108,486.13,25.49,25.49,0,0,1,133.74,461Z" transform="translate(-108 -43.52)"/><path class="a" d="M652.74,240.24a22.71,22.71,0,0,1-23-23,23,23,0,0,1,22.781-23,23.32,23.32,0,0,1,23.169,23.19,22.94,22.94,0,0,1-22.95,22.81Z" transform="translate(-108 -43.52)"/></g></svg>